Input #0, mov,mp4,m4a,3gp,3g2,mj2, from '/home/hbattu/projects/huberman-gpt/huberman-audio/mp3/tmpimmwbqw_.mp4':
  Metadata:
    major_brand     : dash
    minor_version   : 0
    compatible_brands: iso6mp41
    creation_time   : 2022-05-05T17:20:55.000000Z
  Duration: 02:49:32.78, start: 0.000000, bitrate: 129 kb/s
    Stream #0:0(eng): Audio: aac (LC) (mp4a / 0x6134706D), 44100 Hz, stereo, fltp, 0 kb/s (default)
    Metadata:
      creation_time   : 2022-05-05T17:20:55.000000Z
      handler_name    : ISO Media file produced by Google Inc.
Stream mapping:
  Stream #0:0 -> #0:0 (aac (native) -> mp3 (libmp3lame))
Press [q] to stop, [?] for help
[graph_0_in_0_0 @ 0x55a54ebe6c40] tb:1/44100 samplefmt:fltp samplerate:44100 chlayout:0x3
Output #0, mp3, to '../huberman-audio/mp3/XcvhERcZpWw.mp3':
  Metadata:
    major_brand     : dash
    minor_version   : 0
    compatible_brands: iso6mp41
    TSSE            : Lavf58.29.100
    Stream #0:0(eng): Audio: mp3 (libmp3lame), 44100 Hz, stereo, fltp, delay 1105 (default)
    Metadata:
      creation_time   : 2022-05-05T17:20:55.000000Z
      handler_name    : ISO Media file produced by Google Inc.
      encoder         : Lavc58.54.100 libmp3lame
No more output streams to write to, finishing.
size=  158951kB time=02:49:32.78 bitrate= 128.0kbits/s speed=74.3x    
[AVIOContext @ 0x55a54ead0900] Statistics: 0 seeks, 272 writeouts
video:0kB audio:158950kB subtitle:0kB other streams:0kB global headers:0kB muxing overhead: 0.000213%
Input file #0 (/home/hbattu/projects/huberman-gpt/huberman-audio/mp3/tmpimmwbqw_.mp4):
  Input stream #0:0 (audio): 438105 packets read (162764451 bytes); 438105 frames decoded (448619520 samples); 
  Total: 438105 packets (162764451 bytes) demuxed
Output file #0 (../huberman-audio/mp3/XcvhERcZpWw.mp3):
  Output stream #0:0 (audio): 389427 frames encoded (448619520 samples); 389428 packets muxed (162765009 bytes); 
  Total: 389428 packets (162765009 bytes) muxed
[AVIOContext @ 0x55a54eb01f00] Statistics: 2 seeks, 622 writeouts
[AVIOContext @ 0x55a54ead9880] Statistics: 164635739 bytes read, 0 seeks
